<svg xmlns="http://www.w3.org/2000/svg" version="1.1" xmlns:xlink="http://www.w3.org/1999/xlink" xmlns:svgjs="http://svgjs.dev/svgjs" width="2000" height="297" viewBox="0 0 2000 297"><g transform="matrix(1,0,0,1,-1.2121212121212466,-0.4008069059015327)"><svg viewBox="0 0 396 59" data-background-color="#607d8b" preserveAspectRatio="xMidYMid meet" height="297" width="2000" xmlns="http://www.w3.org/2000/svg" xmlns:xlink="http://www.w3.org/1999/xlink"><g id="tight-bounds" transform="matrix(1,0,0,1,0.2400000000000091,0.07962157389962954)"><svg viewBox="0 0 395.52 58.84075685220074" height="58.84075685220074" width="395.52"><g><svg viewBox="0 0 490.3622437726898 72.95025676407876" height="58.84075685220074" width="395.52"><g><rect width="4.7602962660272095" height="63.34320413668198" x="77.62043895685306" y="4.803526313698388" fill="#efebe9" opacity="1" stroke-width="0" stroke="transparent" fill-opacity="1" class="rect-qz-0" data-fill-palette-color="primary" rx="1%" id="qz-0" data-palette-color="#efebe9"></rect></g><g transform="matrix(1,0,0,1,94.84224377268973,10.082126658421885)"><svg viewBox="0 0 395.52000000000004 52.78600344723499" height="52.78600344723499" width="395.52000000000004"><g id="textblocktransform"><svg viewBox="0 0 395.52000000000004 52.78600344723499" height="52.78600344723499" width="395.52000000000004" id="textblock"><g><svg viewBox="0 0 395.52000000000004 52.78600344723499" height="52.78600344723499" width="395.52000000000004"><g transform="matrix(1,0,0,1,0,0)"><svg width="395.52000000000004" viewBox="1.039149319447 -36.4 357.380850680553 47.699999999999996" height="52.78600344723499" data-palette-color="#efebe9"><path d="M12.8-2.5L12.8-32.75 5-32.75 3.55-25.6Q2.95-25.55 2.5-25.55 2.05-25.55 1.55-25.75L1.55-25.75Q1.35-27.9 1.18-30.18 1-32.45 1.05-35L1.05-35 30.3-35Q30.4-32.7 30.23-30.4 30.05-28.1 29.75-25.75L29.75-25.75Q29.25-25.55 28.8-25.55 28.35-25.55 27.75-25.6L27.75-25.6 26.3-32.75 18.05-32.75 18.05-2.5 22.2-1.5Q22.35-0.55 21.95 0.25L21.95 0.25Q20.6 0.15 18.78 0.08 16.95 0 15.55 0L15.55 0Q14.15 0 12.13 0.08 10.1 0.15 8.7 0.25L8.7 0.25Q8.55-0.7 8.8-1.5L8.8-1.5Q9.95-1.65 10.9-1.9 11.85-2.15 12.8-2.5L12.8-2.5ZM32.95-12.5L32.95-12.5Q32.95-16.4 34.47-19.45 36-22.5 38.85-24.25 41.7-26 45.55-26L45.55-26Q49.45-26 52.27-24.25 55.1-22.5 56.62-19.45 58.15-16.4 58.15-12.5L58.15-12.5Q58.15-8.5 56.62-5.45 55.1-2.4 52.27-0.7 49.45 1 45.55 1L45.55 1Q41.7 1 38.85-0.7 36-2.4 34.47-5.45 32.95-8.5 32.95-12.5ZM52.75-11.8L52.75-11.8Q52.75-15.15 52-17.88 51.25-20.6 49.65-22.23 48.05-23.85 45.45-23.85L45.45-23.85Q42.8-23.85 41.22-22.25 39.65-20.65 39-18 38.35-15.35 38.35-12.15L38.35-12.15Q38.35-9.25 39.1-6.73 39.85-4.2 41.47-2.68 43.1-1.15 45.65-1.15L45.65-1.15Q48.35-1.15 49.9-2.65 51.45-4.15 52.1-6.6 52.75-9.05 52.75-11.8ZM69.7-25.05L69.55-21.65 69.6-21.6Q72-24 74.55-24.9 77.1-25.8 79-25.8L79-25.8Q82.25-25.8 84.12-23.95 86-22.1 86-18.55L86-18.55 86.05-2.5 89.55-1.5Q89.7-0.55 89.3 0.25L89.3 0.25Q87.95 0.15 86.45 0.08 84.95 0 83.55 0L83.55 0Q82.15 0 80.6 0.08 79.05 0.15 77.65 0.25L77.65 0.25Q77.5-0.7 77.75-1.5L77.75-1.5Q78.75-1.7 79.52-1.95 80.3-2.2 81.05-2.5L81.05-2.5 81.05-16.3Q81.05-19.7 80-21 78.95-22.3 76.65-22.3L76.65-22.3Q74.8-22.3 73.05-21.58 71.3-20.85 69.95-19.3L69.95-19.3 69.95-2.5 73.3-1.5Q73.45-0.55 73.05 0.25L73.05 0.25Q71.7 0.15 70.27 0.08 68.85 0 67.45 0L67.45 0Q66.05 0 64.4 0.08 62.75 0.15 61.35 0.25L61.35 0.25Q61.2-0.7 61.45-1.5L61.45-1.5Q62.35-1.75 63.25-1.98 64.15-2.2 64.95-2.5L64.95-2.5 64.95-22 60.8-22.4Q60.65-23.4 61.05-24.15L61.05-24.15Q62.9-24.45 64.65-24.8 66.4-25.15 68-25.5L68-25.5Q68.85-25.45 69.7-25.05L69.7-25.05ZM102.89-8.35L102.89-8.35Q101.99-8.35 101.04-8.47 100.09-8.6 99.09-8.9L99.09-8.9Q98.59-8.15 98.39-7.7 98.19-7.25 98.19-6.95L98.19-6.95Q98.19-6.5 98.54-6.05 98.89-5.6 100.39-5.18 101.89-4.75 105.29-4.35L105.29-4.35Q108.64-3.95 110.89-3.3 113.14-2.65 114.29-1.25 115.44 0.15 115.44 2.75L115.44 2.75Q115.44 5 114.34 6.6 113.24 8.2 111.39 9.25 109.54 10.3 107.34 10.8 105.14 11.3 102.89 11.3L102.89 11.3Q99.09 11.3 96.72 10.4 94.34 9.5 93.22 7.98 92.09 6.45 92.09 4.7L92.09 4.7Q92.09 2.9 93.09 1.13 94.09-0.65 96.79-1.75L96.79-1.75Q95.14-3.2 95.14-5.05L95.14-5.05Q95.14-6.7 95.77-7.78 96.39-8.85 97.19-9.6L97.19-9.6Q95.19-10.6 93.84-12.33 92.49-14.05 92.49-16.65L92.49-16.65Q92.49-19.05 93.44-20.7 94.39-22.35 95.94-23.35 97.49-24.35 99.32-24.8 101.14-25.25 102.89-25.25L102.89-25.25Q104.09-25.25 105.39-25.05 106.69-24.85 107.89-24.35L107.89-24.35 114.54-28.45Q114.94-28.25 115.29-27.55 115.64-26.85 115.84-26.08 116.04-25.3 115.94-24.8L115.94-24.8Q114.59-24.35 112.94-23.98 111.29-23.6 109.59-23.5L109.59-23.5Q111.19-22.55 112.24-20.85 113.29-19.15 113.29-16.65L113.29-16.65Q113.29-14.45 112.32-12.88 111.34-11.3 109.74-10.3 108.14-9.3 106.34-8.83 104.54-8.35 102.89-8.35ZM102.89-10.25L102.89-10.25Q105.44-10.25 107.09-12.08 108.74-13.9 108.74-16.75L108.74-16.75Q108.74-19.85 107.09-21.6 105.44-23.35 102.89-23.35L102.89-23.35Q100.34-23.35 98.69-21.6 97.04-19.85 97.04-16.75L97.04-16.75Q97.04-13.9 98.69-12.08 100.34-10.25 102.89-10.25ZM103.64-0.35L103.64-0.35Q102.74-0.5 101.37-0.65 99.99-0.8 98.59-1.15L98.59-1.15Q97.39-0.15 96.77 0.98 96.14 2.1 96.14 4L96.14 4Q96.14 6.1 97.94 7.75 99.74 9.4 103.14 9.4L103.14 9.4Q105.59 9.4 107.34 8.6 109.09 7.8 110.02 6.55 110.94 5.3 110.94 4.05L110.94 4.05Q110.94 2.55 109.92 1.7 108.89 0.85 107.22 0.38 105.54-0.1 103.64-0.35ZM141.34-24.95L141.34-2.4Q142.19-1.9 143.09-1.75 143.99-1.6 144.84-1.4L144.84-1.4Q144.99-0.5 144.59 0.35L144.59 0.35Q143.79 0.5 142.72 0.6 141.64 0.7 140.49 0.7L140.49 0.7Q138.89 0.7 137.69 0.4L137.69 0.4 136.84-3.3 136.59-3.3Q134.04-1 131.87-0.1 129.69 0.8 127.14 0.8L127.14 0.8Q123.54 0.8 121.97-1.2 120.39-3.2 120.39-6.7L120.39-6.7 120.39-22 116.74-22.4Q116.59-23.4 116.99-24.15L116.99-24.15Q118.79-24.4 120.37-24.75 121.94-25.1 123.49-25.5L123.49-25.5Q123.99-25.45 124.44-25.33 124.89-25.2 125.39-24.95L125.39-24.95 125.39-7.45Q125.39-5.35 126.02-4.35 126.64-3.35 127.69-3.03 128.74-2.7 130.09-2.7L130.09-2.7Q131.69-2.7 133.44-3.65 135.19-4.6 136.34-5.9L136.34-5.9 136.34-22 132.69-22.4Q132.54-23.4 132.94-24.15L132.94-24.15Q134.74-24.4 136.32-24.75 137.89-25.1 139.44-25.5L139.44-25.5Q139.94-25.45 140.39-25.33 140.84-25.2 141.34-24.95L141.34-24.95ZM152.84-13.5L152.84-12.5Q152.84-7.45 154.86-4.67 156.89-1.9 160.39-1.9L160.39-1.9Q161.94-1.9 162.99-2.08 164.04-2.25 165.06-2.75 166.09-3.25 167.39-4.15L167.39-4.15Q168.19-3.8 168.29-2.95L168.29-2.95Q166.74-1.15 164.59-0.15 162.44 0.85 160.24 0.85L160.24 0.85Q156.44 0.85 153.59-0.75 150.74-2.35 149.14-5.35 147.54-8.35 147.54-12.5L147.54-12.5Q147.54-16.75 149.21-19.73 150.89-22.7 153.71-24.28 156.54-25.85 159.99-25.85L159.99-25.85Q164.44-25.85 166.56-22.88 168.69-19.9 168.69-15.2L168.69-15.2Q168.69-14.85 168.69-14.55 168.69-14.25 168.64-13.9L168.64-13.9 167.94-13.35 152.84-13.5ZM159.94-23.7L159.94-23.7Q158.49-23.7 157.06-22.8 155.64-21.9 154.54-20.1 153.44-18.3 153.04-15.55L153.04-15.55 163.94-16.15Q163.94-20 163.11-21.85 162.29-23.7 159.94-23.7ZM192.43 0.8L192.43 0.8Q190.83 0.8 189.53 0.2 188.23-0.4 187.51-1.88 186.78-3.35 186.78-5.95L186.78-5.95 186.78-21.9 183.28-21.9Q182.98-22.45 182.96-23.03 182.93-23.6 183.03-24.15L183.03-24.15Q185.13-24.15 186.18-24.7 187.23-25.25 187.81-26.6 188.38-27.95 189.03-30.25L189.03-30.25 191.68-30.25 191.68-24.65 196.93-24.65Q197.63-23.2 196.93-21.9L196.93-21.9 191.68-21.9 191.68-7.2Q191.68-4.9 191.91-3.73 192.13-2.55 192.68-2.13 193.23-1.7 194.18-1.7L194.18-1.7Q194.98-1.7 195.73-2 196.48-2.3 197.18-2.7L197.18-2.7Q197.88-2.25 197.93-1.2L197.93-1.2Q197.38-0.55 195.93 0.13 194.48 0.8 192.43 0.8ZM226.13 1.4L219.83-16.65 213.63 0.7Q213.28 0.9 212.51 1.13 211.73 1.35 211.28 1.35L211.28 1.35 202.08-22.5 198.23-23.5Q198.08-24.45 198.48-25.25L198.48-25.25Q199.83-25.2 201.51-25.1 203.18-25 204.58-25L204.58-25Q206.03-25 207.76-25.1 209.48-25.2 210.88-25.25L210.88-25.25Q211.03-24.3 210.78-23.5L210.78-23.5Q209.88-23.3 208.96-23.08 208.03-22.85 207.33-22.5L207.33-22.5 211.03-12.05Q211.63-10.35 212.18-8.5 212.73-6.65 213.13-4.95L213.13-4.95 213.28-4.95Q213.73-6.7 214.26-8.5 214.78-10.3 215.33-11.85L215.33-11.85 218.53-20.4 217.83-22.5 213.98-23.5Q213.83-24.45 214.23-25.25L214.23-25.25Q215.58-25.2 217.18-25.1 218.78-25 220.18-25L220.18-25Q221.63-25 223.08-25.1 224.53-25.2 225.93-25.25L225.93-25.25Q226.08-24.3 225.83-23.5L225.83-23.5Q224.93-23.3 223.98-23.1 223.03-22.9 222.38-22.5L222.38-22.5 225.73-11.6Q226.28-9.75 226.83-8 227.38-6.25 227.83-4.45L227.83-4.45 227.98-4.45Q228.38-6.15 228.88-7.83 229.38-9.5 229.93-11.2L229.93-11.2 233.48-22.5 229.63-23.5Q229.48-24.45 229.88-25.25L229.88-25.25Q231.23-25.2 232.36-25.1 233.48-25 234.88-25L234.88-25Q236.33-25 237.56-25.1 238.78-25.2 240.18-25.25L240.18-25.25Q240.33-24.3 240.08-23.5L240.08-23.5Q239.13-23.3 238.21-23.1 237.28-22.9 236.53-22.5L236.53-22.5 228.53 0.7Q228.18 0.9 227.38 1.15 226.58 1.4 226.13 1.4L226.13 1.4ZM250.23-24.95L250.23-2.5 253.58-1.5Q253.73-0.55 253.33 0.25L253.33 0.25Q251.98 0.15 250.55 0.08 249.13 0 247.73 0L247.73 0Q246.33 0 244.68 0.08 243.03 0.15 241.63 0.25L241.63 0.25Q241.48-0.7 241.73-1.5L241.73-1.5Q242.68-1.75 243.6-1.95 244.53-2.15 245.23-2.5L245.23-2.5 245.23-22 241.08-22.4Q240.93-23.4 241.33-24.15L241.33-24.15Q243.13-24.4 244.95-24.75 246.78-25.1 248.33-25.5L248.33-25.5Q248.83-25.45 249.28-25.33 249.73-25.2 250.23-24.95L250.23-24.95ZM246.88-30.05L246.88-30.05Q246.03-30.05 245.33-30.6 244.63-31.15 244.23-31.95 243.83-32.75 243.83-33.45L243.83-33.45Q243.83-34.1 244.38-34.77 244.93-35.45 245.75-35.93 246.58-36.4 247.38-36.4L247.38-36.4Q248.28-36.4 248.98-35.83 249.68-35.25 250.05-34.48 250.43-33.7 250.43-33L250.43-33Q250.43-32.35 249.9-31.65 249.38-30.95 248.55-30.5 247.73-30.05 246.88-30.05ZM259.48-7.5L259.98-2.2Q261.03-1.7 262.1-1.5 263.18-1.3 264.53-1.3L264.53-1.3Q266.58-1.3 268.18-2.2 269.78-3.1 269.78-5.1L269.78-5.1Q269.78-6.15 269.2-7.05 268.63-7.95 267.2-8.9 265.78-9.85 263.13-11.05L263.13-11.05Q260.23-12.4 258.63-14.18 257.03-15.95 257.03-19.1L257.03-19.1Q257.03-21.65 258.3-23.13 259.58-24.6 261.6-25.25 263.63-25.9 265.88-25.9L265.88-25.9Q267.83-25.9 269.75-25.53 271.68-25.15 273.18-24.5L273.18-24.5Q273.18-24.25 273.2-23.95 273.23-23.65 273.23-23.4L273.23-23.4Q273.23-20.35 272.28-17.65L272.28-17.65Q272.08-17.6 271.9-17.57 271.73-17.55 271.53-17.55L271.53-17.55Q270.78-17.55 270.03-17.85L270.03-17.85 269.23-23.25Q268.58-23.45 267.73-23.58 266.88-23.7 266.03-23.7L266.03-23.7Q264.88-23.7 263.75-23.38 262.63-23.05 261.9-22.28 261.18-21.5 261.18-20.1L261.18-20.1Q261.18-19.15 261.6-18.3 262.03-17.45 263.3-16.53 264.58-15.6 267.13-14.35L267.13-14.35Q271.13-12.45 272.75-10.68 274.38-8.9 274.38-6.25L274.38-6.25Q274.38-3.7 273.03-2.1 271.68-0.5 269.5 0.25 267.33 1 264.88 1L264.88 1Q262.53 1 260.5 0.63 258.48 0.25 256.43-1L256.43-1 256.43-1.85Q256.43-3.2 256.6-4.63 256.78-6.05 257.33-7.7L257.33-7.7Q257.63-7.75 257.83-7.75L257.83-7.75Q258.73-7.75 259.48-7.5L259.48-7.5ZM286.27 0.8L286.27 0.8Q284.67 0.8 283.37 0.2 282.07-0.4 281.35-1.88 280.62-3.35 280.62-5.95L280.62-5.95 280.62-21.9 277.12-21.9Q276.82-22.45 276.8-23.03 276.77-23.6 276.87-24.15L276.87-24.15Q278.97-24.15 280.02-24.7 281.07-25.25 281.65-26.6 282.22-27.95 282.87-30.25L282.87-30.25 285.52-30.25 285.52-24.65 290.77-24.65Q291.47-23.2 290.77-21.9L290.77-21.9 285.52-21.9 285.52-7.2Q285.52-4.9 285.75-3.73 285.97-2.55 286.52-2.13 287.07-1.7 288.02-1.7L288.02-1.7Q288.82-1.7 289.57-2 290.32-2.3 291.02-2.7L291.02-2.7Q291.72-2.25 291.77-1.2L291.77-1.2Q291.22-0.55 289.77 0.13 288.32 0.8 286.27 0.8ZM299.42-13.5L299.42-12.5Q299.42-7.45 301.45-4.67 303.47-1.9 306.97-1.9L306.97-1.9Q308.52-1.9 309.57-2.08 310.62-2.25 311.65-2.75 312.67-3.25 313.97-4.15L313.97-4.15Q314.77-3.8 314.87-2.95L314.87-2.95Q313.32-1.15 311.17-0.15 309.02 0.85 306.82 0.85L306.82 0.85Q303.02 0.85 300.17-0.75 297.32-2.35 295.72-5.35 294.12-8.35 294.12-12.5L294.12-12.5Q294.12-16.75 295.8-19.73 297.47-22.7 300.3-24.28 303.12-25.85 306.57-25.85L306.57-25.85Q311.02-25.85 313.15-22.88 315.27-19.9 315.27-15.2L315.27-15.2Q315.27-14.85 315.27-14.55 315.27-14.25 315.22-13.9L315.22-13.9 314.52-13.35 299.42-13.5ZM306.52-23.7L306.52-23.7Q305.07-23.7 303.65-22.8 302.22-21.9 301.12-20.1 300.02-18.3 299.62-15.55L299.62-15.55 310.52-16.15Q310.52-20 309.7-21.85 308.87-23.7 306.52-23.7ZM327.02-16.85L327.02-2.5 331.87-1.5Q332.02-0.55 331.62 0.25L331.62 0.25Q330.72 0.2 329.39 0.15 328.07 0.1 326.77 0.05 325.47 0 324.52 0L324.52 0Q323.12 0 321.47 0.08 319.82 0.15 318.42 0.25L318.42 0.25Q318.27-0.7 318.52-1.5L318.52-1.5Q319.47-1.75 320.39-1.95 321.32-2.15 322.02-2.5L322.02-2.5 322.02-22 317.87-22.4Q317.72-23.4 318.12-24.15L318.12-24.15Q319.92-24.4 321.74-24.75 323.57-25.1 325.12-25.5L325.12-25.5Q325.62-25.45 325.94-25.33 326.27-25.2 326.77-24.95L326.77-24.95 326.77-20.4 326.82-20.35Q328.37-22.65 330.29-24.25 332.22-25.85 334.42-25.85L334.42-25.85Q335.27-25.85 336.09-25.73 336.92-25.6 337.72-25.1L337.72-25.1Q337.82-23.05 337.54-21.2 337.27-19.35 336.72-17.6L336.72-17.6Q336.37-17.55 335.62-17.57 334.87-17.6 334.47-17.8L334.47-17.8 333.77-22.8Q332.02-22.8 330.24-21.53 328.47-20.25 327.02-16.85L327.02-16.85ZM343.52-7.5L344.02-2.2Q345.07-1.7 346.14-1.5 347.22-1.3 348.57-1.3L348.57-1.3Q350.62-1.3 352.22-2.2 353.82-3.1 353.82-5.1L353.82-5.1Q353.82-6.15 353.24-7.05 352.67-7.95 351.24-8.9 349.82-9.85 347.17-11.05L347.17-11.05Q344.27-12.4 342.67-14.18 341.07-15.95 341.07-19.1L341.07-19.1Q341.07-21.65 342.34-23.13 343.62-24.6 345.64-25.25 347.67-25.9 349.92-25.9L349.92-25.9Q351.87-25.9 353.79-25.53 355.72-25.15 357.22-24.5L357.22-24.5Q357.22-24.25 357.24-23.95 357.27-23.65 357.27-23.4L357.27-23.4Q357.27-20.35 356.32-17.65L356.32-17.65Q356.12-17.6 355.94-17.57 355.77-17.55 355.57-17.55L355.57-17.55Q354.82-17.55 354.07-17.85L354.07-17.85 353.27-23.25Q352.62-23.45 351.77-23.58 350.92-23.7 350.07-23.7L350.07-23.7Q348.92-23.7 347.79-23.38 346.67-23.05 345.94-22.28 345.22-21.5 345.22-20.1L345.22-20.1Q345.22-19.15 345.64-18.3 346.07-17.45 347.34-16.53 348.62-15.6 351.17-14.35L351.17-14.35Q355.17-12.45 356.79-10.68 358.42-8.9 358.42-6.25L358.42-6.25Q358.42-3.7 357.07-2.1 355.72-0.5 353.54 0.25 351.37 1 348.92 1L348.92 1Q346.57 1 344.54 0.63 342.52 0.25 340.47-1L340.47-1 340.47-1.85Q340.47-3.2 340.64-4.63 340.82-6.05 341.37-7.7L341.37-7.7Q341.67-7.75 341.87-7.75L341.87-7.75Q342.77-7.75 343.52-7.5L343.52-7.5Z" opacity="1" transform="matrix(1,0,0,1,0,0)" fill="#efebe9" class="wordmark-text-0" data-fill-palette-color="primary" id="text-0"></path></svg></g></svg></g></svg></g></svg></g><g><svg viewBox="0 0 65.15893040704361 72.95025676407876" height="72.95025676407876" width="65.15893040704361"><g><svg xmlns="http://www.w3.org/2000/svg" xmlns:xlink="http://www.w3.org/1999/xlink" version="1.1" x="0" y="0" viewBox="9.272614665849375 5.001514192894867 71.45438550314684 79.99848580710513" enable-background="new 0 0 90 90" xml:space="preserve" height="72.95025676407876" width="65.15893040704361" class="icon-icon-0" data-fill-palette-color="accent" id="icon-0"><g fill="#ff8a65" data-fill-palette-color="accent"><g fill="#ff8a65" data-fill-palette-color="accent"><path d="M37.225 70.993c-8.955 0-15.963-2.729-20.833-8.108C8.07 53.688 9.313 40.196 9.37 39.626c0.155-1.547 1.456-2.724 3.01-2.724h17.35l-5.063-5.063c-0.653-0.653-0.972-1.568-0.866-2.485s0.624-1.736 1.408-2.223l12.208-7.593-14.964-8.912c-1.436-0.855-1.906-2.712-1.051-4.147s2.711-1.906 4.147-1.051l19.234 11.455c0.907 0.541 1.467 1.515 1.477 2.57 0.011 1.056-0.531 2.041-1.427 2.598l-13.192 8.205 7.533 7.533c0.865 0.865 1.124 2.167 0.656 3.297-0.468 1.13-1.572 1.868-2.795 1.868h-21.69c0.115 3.826 0.997 10.88 5.56 15.9 3.673 4.041 9.164 6.09 16.321 6.09 1.671 0 3.025 1.354 3.025 3.025S38.896 70.993 37.225 70.993z" fill="#ff8a65" data-fill-palette-color="accent"></path></g><g fill="#ff8a65" data-fill-palette-color="accent"><g fill="#ff8a65" data-fill-palette-color="accent"><path d="M49.971 68.876c-0.774 0-1.548-0.295-2.139-0.886-1.183-1.182-1.183-3.097-0.001-4.278 5.383-5.383 5.383-14.142 0.001-19.523-1.183-1.181-1.183-3.097 0-4.279 1.181-1.181 3.097-1.181 4.277 0 7.742 7.742 7.742 20.338 0.001 28.081C51.52 68.581 50.745 68.876 49.971 68.876z" fill="#ff8a65" data-fill-palette-color="accent"></path></g><g fill="#ff8a65" data-fill-palette-color="accent"><path d="M58.549 76.242c-0.774 0-1.549-0.295-2.139-0.886-1.183-1.182-1.183-3.097 0-4.278 4.574-4.575 7.094-10.658 7.094-17.128 0-6.471-2.52-12.554-7.094-17.128-1.183-1.182-1.183-3.098 0-4.279 1.181-1.181 3.097-1.181 4.277 0 5.719 5.718 8.867 13.32 8.867 21.407 0 8.086-3.148 15.688-8.867 21.406C60.098 75.947 59.323 76.242 58.549 76.242z" fill="#ff8a65" data-fill-palette-color="accent"></path></g><g fill="#ff8a65" data-fill-palette-color="accent"><path d="M66.094 85c-0.773 0-1.549-0.296-2.139-0.887-1.182-1.181-1.182-3.097 0-4.278 6.914-6.914 10.722-16.107 10.722-25.885 0-9.779-3.807-18.972-10.721-25.886-1.183-1.181-1.183-3.097 0-4.278 1.18-1.181 3.097-1.181 4.277 0 8.058 8.057 12.495 18.769 12.494 30.164 0 11.394-4.437 22.106-12.494 30.163C67.643 84.704 66.868 85 66.094 85z" fill="#ff8a65" data-fill-palette-color="accent"></path></g></g></g></svg></g></svg></g></svg></g><defs></defs></svg><rect width="395.52" height="58.84075685220074" fill="none" stroke="none" visibility="hidden"></rect></g></svg></g></svg>